<svg width="26" height="30" viewBox="0 0 26 30" fill="none" xmlns="http://www.w3.org/2000/svg">
<path fill-rule="evenodd" clip-rule="evenodd" d="M11.9808 0.803223C12.0059 0.925293 14.5648 13.0823 25.4188 18.0912C25.9199 18.3223 26.1389 18.9172 25.9078 19.4182C25.7389 19.7842 25.3768 19.9993 24.9999 19.9993C24.8589 19.9993 24.7169 19.9702 24.5809 19.9072C20.2739 17.9203 17.1898 14.9612 14.9989 11.9802C14.9774 11.9802 14.9561 11.9814 14.9348 11.9827C14.8888 11.9852 14.8428 11.9878 14.7949 11.9783C13.3539 11.6772 12.1089 11.7073 11.2938 11.7922C11.5748 12.3822 12.0309 13.1892 12.5349 13.9823H12.5388H12.5402C13.9954 13.9181 16.4283 13.811 17.8818 16.5282C18.2623 17.2373 18.501 18.2776 18.7537 19.3793L18.7568 19.3932L18.7573 19.3955C18.9884 20.4027 19.3372 21.9225 19.7069 22.2922C20.0979 22.6832 20.0979 23.3163 19.7069 23.7063C19.5118 23.9022 19.2559 23.9993 18.9999 23.9993C18.7439 23.9993 18.4879 23.9022 18.2928 23.7063C17.5159 22.9292 17.1719 21.4292 16.8079 19.8402L16.806 19.832C16.5925 18.9047 16.3722 17.9469 16.1179 17.4712C15.3198 15.9792 14.1678 15.9122 12.6268 15.9802C12.4019 15.9902 12.1919 15.9993 11.9999 15.9993C7.71582 15.9993 3.57385 12.9303 3.3999 12.7992C3.14783 12.6112 2.99988 12.3142 2.99988 11.9993C2.99988 11.6852 3.14783 11.3882 3.3999 11.1992C3.43884 11.1703 7.28882 8.26318 9.16785 5.44519C9.47388 4.98523 10.0948 4.86023 10.5549 5.16724C11.0139 5.47327 11.1378 6.09424 10.8319 6.5542C9.69092 8.26526 7.97583 9.93823 6.62891 11.1252C6.89282 11.4852 7.78186 12.5182 9.82983 13.3323C9.3739 12.4683 8.99988 11.5833 8.99988 10.9993C8.99988 10.5492 9.3009 10.1543 9.73389 10.0353C9.81384 10.0143 11.3549 9.61523 13.5399 9.79028C10.8978 5.40625 10.0779 1.48828 10.0189 1.19519C9.91187 0.653198 10.2628 0.128296 10.8038 0.0192871C11.3489 -0.0877686 11.8718 0.262207 11.9808 0.803223ZM2 6.99939C3.104 6.99939 4 7.89539 4 8.99939C4 10.1034 3.104 10.9994 2 10.9994C0.895996 10.9994 0 10.1034 0 8.99939C0 7.89539 0.895996 6.99939 2 6.99939ZM0.998901 29.9995C0.790894 29.9995 0.579956 29.9344 0.399902 29.7994C-0.0419922 29.4685 -0.131104 28.8414 0.199951 28.3994C3.078 24.5614 6.03394 16.7274 6.06299 16.6484C6.25793 16.1315 6.83496 15.8705 7.35095 16.0635C7.86792 16.2574 8.13 16.8335 7.93591 17.3505C7.81189 17.6825 4.85095 25.5315 1.79993 29.5995C1.60291 29.8615 1.30298 29.9995 0.998901 29.9995Z" transform="translate(0.00012207 -0.00012207)" fill="black"/>
</svg>
