<svg width="22" height="26" viewBox="0 0 22 26" fill="none" xmlns="http://www.w3.org/2000/svg">
<path fill-rule="evenodd" clip-rule="evenodd" d="M17.9193 24.606C15.8922 19.875 12.5893 17.307 10.4333 16.057C11.0943 13.991 11.6623 10.994 11.8863 9.74402C11.9917 9.77124 12.0949 9.79834 12.1983 9.82556C12.3793 9.87317 12.5612 9.9209 12.7572 9.96997C12.8393 9.99097 12.9203 10 13.0013 10C13.4492 10 13.8573 9.69702 13.9702 9.24304C14.1043 8.70703 13.7782 8.16394 13.2433 8.03003C7.95523 6.70801 6.22623 5.81201 5.70731 5.29297C5.33231 4.91797 5.00223 2.91101 5.00027 1C5.00027 0.447998 4.55228 0 4.00027 0C3.44827 0.000976562 3.00027 0.447998 3.00027 1C3.00027 2.03601 3.09329 5.50696 4.29324 6.70703C5.02823 7.44202 6.53629 8.15295 8.98233 8.92102L7.03934 15.725C6.89224 16.24 7.1763 16.7791 7.68423 16.949C7.69034 16.951 7.75528 16.973 7.87222 17.02L6.25223 20.26C5.25723 20.7791 2.07925 22.507 0.293243 24.293C-0.0977478 24.684 -0.0977478 25.316 0.293243 25.707C0.684235 26.098 1.31631 26.098 1.70731 25.707C3.56729 23.847 7.40933 21.9139 7.4473 21.895C7.64127 21.797 7.79825 21.641 7.89529 21.447L9.65433 17.927C11.5403 19.0699 14.3443 21.342 16.0813 25.394C16.2433 25.7729 16.6123 26.001 17.0013 26.001C17.1322 26.001 17.2663 25.974 17.3943 25.9189C17.9013 25.702 18.1372 25.114 17.9193 24.606ZM11.0004 6C9.89639 6 9.0004 5.104 9.0004 4C9.0004 2.896 9.89639 2 11.0004 2C12.1044 2 13.0004 2.896 13.0004 4C13.0004 5.104 12.1044 6 11.0004 6ZM17.0004 8C15.8964 8 15.0004 7.104 15.0004 6C15.0004 4.896 15.8964 4 17.0004 4C18.1044 4 19.0004 4.896 19.0004 6C19.0004 7.104 18.1044 8 17.0004 8ZM20.0204 25.1959C20.1144 25.671 20.5324 26 20.9994 26C21.0644 26 21.1304 25.994 21.1964 25.98C21.7384 25.8719 22.0894 25.345 21.9804 24.804C21.0944 20.371 17.3904 16.765 16.0804 15.606L16.7884 11.3569C17.4875 11.64 18.2425 11.986 18.7744 12.317C18.4484 13.153 18.0004 14.563 18.0004 16C18.0004 16.552 18.4484 17 19.0004 17C19.5524 17 20.0004 16.552 20.0004 16C20.0004 14.27 20.8864 12.464 20.8954 12.4459C21.0865 12.062 21.0114 11.5969 20.7074 11.293C19.5734 10.1589 16.6464 9.16101 16.3164 9.05103C16.0384 8.95801 15.7344 8.99194 15.4844 9.14294C15.2334 9.29395 15.0624 9.547 15.0144 9.83496L14.0144 15.835C13.9544 16.192 14.0934 16.554 14.3744 16.78C14.4224 16.818 19.1044 20.6219 20.0204 25.1959Z" transform="translate(-0.000366211)" fill="black"/>
</svg>
