<svg width="24" height="26" viewBox="0 0 24 26" fill="none" xmlns="http://www.w3.org/2000/svg">
<path fill-rule="evenodd" clip-rule="evenodd" d="M23 1V3C23.553 3 24 3.448 24 4C24 4.552 23.553 5 23 5V7C23 7.552 22.553 8 22 8C21.447 8 21 7.552 21 7V5H3V7C3 7.552 2.55298 8 2 8C1.44702 8 1 7.552 1 7V5C0.447021 5 0 4.552 0 4C0 3.448 0.447021 3 1 3V1C1 0.447998 1.44702 0 2 0C2.55298 0 3 0.447998 3 1V3H21V1C21 0.447998 21.447 0 22 0C22.553 0 23 0.447998 23 1ZM14 8C14 9.104 13.104 10 12 10C10.896 10 10 9.104 10 8C10 6.896 10.896 6 12 6C13.104 6 14 6.896 14 8ZM17.6025 18.1963C16.8195 17.5212 15.2885 17.2273 13.9805 17.0983C13.9818 17.0835 13.9856 17.0696 13.9894 17.0558L13.9897 17.0546C13.9946 17.0371 13.9995 17.0195 13.9995 17.0002V13.0002C13.9995 12.981 13.9946 12.9634 13.9897 12.9459L13.9894 12.9447C13.9856 12.9309 13.9818 12.917 13.9805 12.9022C15.3795 12.7812 17.2125 12.5112 18.4475 11.8943C18.7405 11.7472 18.9435 11.4662 18.9905 11.1412L19.7245 6.00024H17.7045L17.0895 10.3013C15.5225 10.8662 12.9475 10.9993 11.9995 11.0002C11.0525 10.9993 8.47754 10.8662 6.91052 10.3013L6.29553 6.00024H4.27551L5.00952 11.1412C5.05652 11.4662 5.25952 11.7472 5.55249 11.8943C6.78748 12.5112 8.62048 12.7812 10.0195 12.9022C10.0182 12.917 10.0143 12.9309 10.0103 12.9446L10.0098 12.9462C10.0046 12.9636 9.99951 12.981 9.99951 13.0002V17.0002C9.99951 17.0195 10.0046 17.0369 10.0098 17.0543L10.0103 17.0559C10.0143 17.0696 10.0182 17.0835 10.0195 17.0983C8.71155 17.2273 7.18054 17.5212 6.39746 18.1963C5.8125 18.5752 3.99951 20.1443 3.99951 25.0002C3.99951 25.5522 4.44751 26.0002 4.99951 26.0002C5.55249 26.0002 5.99951 25.5522 5.99951 25.0002C5.99951 20.9899 7.36194 19.9591 7.44373 19.8973L7.44751 19.8943C7.54248 19.8462 7.63049 19.7832 7.70654 19.7073C8.08252 19.3313 10.0885 19.0012 11.9995 19.0002C13.9115 19.0012 15.9165 19.3313 16.2925 19.7073C16.3485 19.7622 16.4495 19.8342 16.5165 19.8752C16.5315 19.8833 17.9995 20.8342 17.9995 25.0002C17.9995 25.5522 18.4475 26.0002 18.9995 26.0002C19.5525 26.0002 19.9995 25.5522 19.9995 25.0002C19.9995 20.1443 18.1875 18.5752 17.6025 18.1963Z" fill="black"/>
</svg>
