<svg width="30" height="30" viewBox="0 0 30 30" fill="none" xmlns="http://www.w3.org/2000/svg">
<path fill-rule="evenodd" clip-rule="evenodd" d="M12.9999 2C12.9999 3.104 12.1039 4 10.9999 4C9.89587 4 8.99988 3.104 8.99988 2C8.99988 0.895996 9.89587 0 10.9999 0C12.1039 0 12.9999 0.895996 12.9999 2ZM2.00085 12C1.63391 12 1.28088 11.798 1.10486 11.447L0.104858 9.44702C-0.0270996 9.18103 -0.0350342 8.87 0.0849609 8.59705C0.203857 8.32507 0.438965 8.12 0.725952 8.03906L7.72595 6.03906C8.25293 5.88696 8.80994 6.19397 8.96191 6.72498C9.11292 7.25598 8.80591 7.81006 8.27393 7.96106L2.43396 9.63L2.8949 10.553C3.14197 11.047 2.94092 11.647 2.4469 11.895C2.30396 11.9661 2.15088 12 2.00085 12ZM18.7576 3.0293C19.2926 2.89331 19.8356 3.22241 19.9696 3.75732C20.1046 4.29333 19.7786 4.8363 19.2416 4.97034L12.8716 6.56335C14.6957 8.67139 17.9996 13.0393 17.9996 17.0004C17.9996 20.6312 17.0061 23.7321 16.3833 25.3192C21.6918 26.1573 25.9716 27.1792 28 27.699V17.6591L21.606 14.9189C21.238 14.762 21 14.4 21 14C21 13.6 21.238 13.238 21.606 13.0811L28.606 10.0811H28.6071C28.6107 10.0792 28.6144 10.0785 28.618 10.0778L28.625 10.076C28.731 10.033 28.843 10.014 28.955 10.009C28.9625 10.0085 28.9694 10.0066 28.9762 10.0045C28.9839 10.0022 28.9916 10 29 10C29.0061 10 29.0112 10.0016 29.0162 10.0031C29.021 10.0045 29.0256 10.006 29.031 10.006C29.145 10.01 29.2581 10.032 29.365 10.074C29.3788 10.0793 29.3907 10.0854 29.4028 10.0917C29.411 10.0958 29.4192 10.1 29.428 10.104C29.4395 10.1096 29.4512 10.1149 29.4628 10.1201L29.4668 10.1219C29.4955 10.1349 29.5242 10.1478 29.551 10.165C29.5884 10.1893 29.6199 10.219 29.6517 10.2491L29.674 10.27C29.6798 10.2758 29.6862 10.281 29.6927 10.2863C29.7009 10.2928 29.7092 10.2997 29.717 10.308C29.795 10.3879 29.855 10.481 29.902 10.583C29.9105 10.601 29.9172 10.6189 29.9241 10.6372L29.9252 10.64L29.9301 10.653C29.9709 10.764 30 10.879 30 11V17V29C30 29.314 29.8521 29.609 29.6021 29.798C29.427 29.931 29.215 30 29 30C28.908 30 28.8149 29.9871 28.726 29.9611L28.7244 29.9606C28.5062 29.8992 14.6512 26 1 26C0.447021 26 0 25.552 0 25C0 24.448 0.447021 24 1 24C5.59753 24 10.2142 24.4326 14.3452 25.0146C14.8549 23.7988 15.9996 20.6617 15.9996 17.0004C15.9996 16.7814 15.9766 16.5583 15.9506 16.3353C15.7926 17.0583 14.9727 20.4663 12.9866 23.8134C12.2656 23.7213 11.5347 23.6333 10.7906 23.5543C13.1666 19.9493 14.0106 15.8484 14.0197 15.8033C14.0276 15.7633 14.0376 15.7234 14.0516 15.6833L14.0521 15.6808C14.071 15.5844 14.6194 12.79 10.1866 6.5813C10.1831 6.57629 10.181 6.57068 10.1791 6.56519L10.1787 6.56409C10.1768 6.55896 10.1748 6.55383 10.1716 6.54932C10.1077 6.45129 10.0576 6.34631 10.0306 6.2334C10.0276 6.22192 10.0267 6.21045 10.0259 6.19885C10.0254 6.19104 10.0248 6.18323 10.0236 6.17529C10.0056 6.08032 10.0037 5.98438 10.0156 5.88635C10.0187 5.8573 10.0216 5.82935 10.0276 5.80139C10.0294 5.79089 10.0303 5.78064 10.031 5.77039C10.032 5.75818 10.033 5.74597 10.0356 5.7334C10.0616 5.64331 10.0986 5.5603 10.1456 5.4834C10.1488 5.47778 10.1526 5.47327 10.1566 5.46887L10.1587 5.46643L10.1636 5.46033C10.2236 5.36731 10.2996 5.28931 10.3866 5.22131C10.3932 5.21631 10.3979 5.20996 10.4027 5.20374C10.4075 5.19751 10.4121 5.19141 10.4186 5.1864C10.4243 5.18213 10.4309 5.18018 10.4374 5.17822L10.4385 5.17786C10.4438 5.17615 10.4491 5.17444 10.4536 5.17139C10.5466 5.10938 10.6466 5.05835 10.7576 5.0304L18.7576 3.0293ZM28 12.517L24.5389 14L28 15.4829V12.517Z" transform="translate(0.00012207)" fill="black"/>
</svg>
