<svg width="30" height="28" viewBox="0 0 30 28" fill="none" xmlns="http://www.w3.org/2000/svg">
<path fill-rule="evenodd" clip-rule="evenodd" d="M13.9999 2C13.9999 3.104 13.1039 4 11.9999 4C10.8959 4 9.99988 3.104 9.99988 2C9.99988 0.895996 10.8959 0 11.9999 0C13.1039 0 13.9999 0.895996 13.9999 2ZM23.9089 22.1649C25.5909 22.0599 27.2969 22 28.9999 22C29.5519 22 29.9999 22.448 29.9999 23C29.9999 23.5519 29.5519 24 28.9999 24C24.6149 24 20.2129 24.402 16.2479 24.95C16.2296 24.9546 16.2114 24.9597 16.1932 24.9648C16.1305 24.9825 16.0682 25 15.9999 25C15.9913 25 15.9835 24.9977 15.976 24.9954C15.9694 24.9934 15.9629 24.9915 15.9559 24.991C7.74634 26.1455 1.47986 27.9034 1.27881 27.9598L1.2749 27.9609C1.18286 27.9879 1.08984 28.001 0.998901 28.001C0.563843 28.001 0.16394 27.714 0.0389404 27.2749C-0.113159 26.7439 0.193848 26.1899 0.724854 26.0389C0.817871 26.012 6.90686 24.293 15.0189 23.106C15.1099 20.521 15.5669 18.439 15.8429 17.3999C14.9979 16.9409 13.3298 16.375 11.9009 16.0079C11.7499 17.9369 11.3959 20.7 10.6649 22.7889C9.83191 22.939 9.04089 23.0909 8.28687 23.241C9.4259 21.261 9.99988 16.323 9.99988 14V6C9.99988 5.448 10.4479 5 10.9999 5H11.9999H12.9999C13.3809 5 13.7299 5.21899 13.8979 5.56091C13.9069 5.57898 14.8099 7.396 16.7069 9.29297C17.0699 9.43396 18.7568 8.94897 20.2568 8.245L20.0068 6.11694C19.9419 5.56799 20.3339 5.07092 20.8829 5.00696C21.4259 4.93799 21.9279 5.33496 21.9929 5.88293L23.9089 22.1649ZM12.9999 14.231C14.3319 14.604 16.8019 15.3879 17.7069 16.293C17.9749 16.5599 18.0679 16.957 17.9489 17.3149C17.9398 17.3409 17.1909 19.6479 17.0319 22.83C18.6079 22.627 20.2418 22.449 21.9119 22.311L20.5029 10.3359C18.7479 11.103 16.3928 11.807 15.2928 10.707C14.2809 9.69495 13.5228 8.70801 12.9999 7.93799V14.231ZM6.99988 13H7.99988C8.55188 13 8.99988 12.552 8.99988 12V6C8.99988 5.448 8.55188 5 7.99988 5C6.89685 5 5.99988 5.89697 5.99988 7V12C5.99988 12.552 6.44788 13 6.99988 13Z" transform="translate(0.000366211)" fill="black"/>
</svg>
