<svg width="19" height="26" viewBox="0 0 19 26" fill="none" xmlns="http://www.w3.org/2000/svg">
<path fill-rule="evenodd" clip-rule="evenodd" d="M14.0006 2C14.0006 0.895996 14.8966 0 16.0006 0C17.1046 0 18.0006 0.895996 18.0006 2C18.0006 3.104 17.1046 4 16.0006 4C14.8966 4 14.0006 3.104 14.0006 2ZM15.9706 5.75696C15.9796 5.79395 16.9316 9.51599 18.7076 11.293C19.0986 11.684 19.0986 12.316 18.7076 12.707C18.5127 12.902 18.2566 13 18.0006 13C17.7446 13 17.4886 12.902 17.2937 12.707C16.0127 11.426 15.1327 9.48096 14.6077 8.05505C13.4946 9.44995 11.8586 11.608 10.9917 13.265C12.0956 14.1851 13.6256 15.635 14.8326 17.4449C15.0566 17.781 15.0566 18.219 14.8326 18.5551C14.8176 18.578 13.3317 20.873 13.0507 24H15.0006C15.5536 24 16.0006 24.448 16.0006 25C16.0006 25.552 15.5536 26 15.0006 26H10.0006C9.44763 26 9.00061 25.552 9.00061 25C9.00061 24.448 9.44763 24 10.0006 24H11.0457C11.2546 21.244 12.2616 19.054 12.8116 18.046C11.7206 16.5601 10.4026 15.365 9.50159 14.632C9.75464 15.67 10.0006 16.9449 10.0006 18C10.0006 18.459 9.68762 18.858 9.24365 18.97C9.20667 18.979 5.6886 19.877 2.91968 21.6021L3.89465 23.553C4.1427 24.047 3.94165 24.647 3.44763 24.895C3.30469 24.9659 3.15161 25 3.00159 25C2.63464 25 2.28162 24.798 2.10559 24.447L0.105591 20.447C-0.141357 19.953 0.0596924 19.353 0.553589 19.105C1.04761 18.858 1.64758 19.058 1.89563 19.553L2.02258 19.8101C4.21863 18.4771 6.70667 17.627 7.95764 17.2531C7.77661 15.5253 7.0835 13.4103 7.05359 13.3188L7.05261 13.316C6.96863 13.064 6.98767 12.79 7.10559 12.553C8.30469 10.156 10.1556 7.802 11.5226 6.22095C9.53467 6.51501 6.73267 7.19995 4.60059 8.80005C4.15759 9.13098 3.53064 9.04102 3.20068 8.59998C2.86865 8.15796 2.95862 7.53101 3.40063 7.19995C7.61865 4.03601 13.7417 4 14.0006 4C14.1296 4 14.2587 4.026 14.3806 4.07605C14.5016 4.12598 14.6127 4.198 14.7076 4.29297L15.7076 5.29297C15.7876 5.37305 15.8477 5.46899 15.8947 5.56995C15.9088 5.59827 15.9193 5.62659 15.9305 5.65649L15.9326 5.66199C15.9373 5.67554 15.9432 5.6886 15.9492 5.70178C15.9573 5.7196 15.9655 5.73743 15.9706 5.75696Z" transform="translate(-0.000244141)" fill="black"/>
</svg>
