<svg width="30" height="18" viewBox="0 0 30 18" fill="none" xmlns="http://www.w3.org/2000/svg">
<path fill-rule="evenodd" clip-rule="evenodd" d="M22 4C23.104 4 24 3.104 24 2C24 0.895996 23.104 0 22 0C20.896 0 20 0.895996 20 2C20 3.104 20.896 4 22 4ZM16.4652 5.27075C14.9751 5.00574 12.8131 4.95178 10.3711 5.92871C9.86218 6.13281 9.27612 5.88477 9.07117 5.3717C8.86621 4.85876 9.11621 4.27673 9.62915 4.07178C14.9841 1.92871 19.2682 4.01672 19.4471 4.10571C19.5421 4.15271 19.6241 4.21472 19.6971 4.28577C19.6987 4.28735 19.7004 4.28833 19.7023 4.28931C19.704 4.29028 19.7057 4.29126 19.7072 4.29272C19.7125 4.29871 19.7162 4.30518 19.7198 4.31177C19.7229 4.31726 19.7261 4.32275 19.7301 4.32776C19.8002 4.40271 19.8541 4.48779 19.8971 4.57971L19.8975 4.58057L19.8983 4.5824L19.8992 4.58423C19.9135 4.61475 19.9268 4.64319 19.9362 4.6748C19.9672 4.76074 19.9832 4.84973 19.9891 4.94275C19.9895 4.95251 19.9908 4.96228 19.9922 4.9718L19.9926 4.97424C19.9946 4.98853 19.9967 5.00269 19.9961 5.0177C19.9961 5.02161 19.9968 5.02527 19.9976 5.02905C19.9983 5.03296 19.9991 5.03711 19.9991 5.04175C19.9941 5.15076 19.9691 5.25476 19.9321 5.35376C19.9261 5.36853 19.9182 5.38196 19.9102 5.39539C19.9045 5.40466 19.899 5.41394 19.8942 5.42371C19.8531 5.51074 19.8021 5.58875 19.7382 5.65979C19.7324 5.66626 19.7285 5.67371 19.7247 5.68091L19.7241 5.68201C19.7194 5.69092 19.7147 5.69971 19.7072 5.70679L19.7013 5.71277C19.5697 5.84656 17.3447 8.10864 15.9242 10.3707C15.6392 10.4468 15.3451 10.4998 15.0001 10.4998C14.0917 10.4998 13.5071 10.2078 12.6226 9.76599L12.6182 9.76379C12.4321 9.67078 12.2341 9.57471 12.0311 9.47778C13.5521 7.48071 15.1962 6.11877 16.4652 5.27075ZM29 14C27.264 14 26.089 13.413 25.053 12.895L25.0505 12.8938C24.0916 12.4143 23.2629 12 22 12C20.7371 12 19.9084 12.4143 18.9495 12.8938L18.947 12.895C17.911 13.413 16.736 14 15 14C13.264 14 12.089 13.413 11.053 12.895L11.0505 12.8938C10.0916 12.4143 9.26294 12 8 12C6.73706 12 5.90845 12.4143 4.94946 12.8938L4.94702 12.895C3.91101 13.413 2.73596 14 1 14C0.447021 14 0 13.552 0 13C0 12.448 0.447021 12 1 12C2.26294 12 3.09155 11.5857 4.05054 11.1062L4.05298 11.105C5.08899 10.587 6.26404 10 8 10C9.73596 10 10.911 10.587 11.947 11.105L11.9495 11.1062C12.9084 11.5857 13.7371 12 15 12C16.2629 12 17.0916 11.5857 18.0505 11.1062L18.053 11.105C19.089 10.587 20.264 10 22 10C23.736 10 24.911 10.587 25.947 11.105L25.9495 11.1062C26.9084 11.5857 27.7371 12 29 12C29.553 12 30 12.448 30 13C30 13.552 29.553 14 29 14ZM25.053 16.895C26.089 17.413 27.264 18 29 18C29.553 18 30 17.552 30 17C30 16.448 29.553 16 29 16C27.7371 16 26.9084 15.5857 25.9495 15.1062L25.947 15.105C24.911 14.587 23.736 14 22 14C20.264 14 19.089 14.587 18.053 15.105L18.0505 15.1062C17.0916 15.5857 16.2629 16 15 16C13.7371 16 12.9084 15.5857 11.9495 15.1062L11.947 15.105C10.911 14.587 9.73596 14 8 14C6.26404 14 5.08899 14.587 4.05298 15.105L4.05054 15.1062C3.09155 15.5857 2.26294 16 1 16C0.447021 16 0 16.448 0 17C0 17.552 0.447021 18 1 18C2.73596 18 3.91101 17.413 4.94702 16.895L4.94946 16.8938C5.90845 16.4143 6.73706 16 8 16C9.26294 16 10.0916 16.4143 11.0505 16.8938L11.053 16.895C12.089 17.413 13.264 18 15 18C16.736 18 17.911 17.413 18.947 16.895L18.9495 16.8938C19.9084 16.4143 20.7371 16 22 16C23.2629 16 24.0916 16.4143 25.0505 16.8938L25.053 16.895Z" fill="black"/>
</svg>
