<?xml version="1.0" encoding="UTF-8"?>
<svg width="40px" height="40px" viewBox="0 0 40 40" version="1.1" xmlns="http://www.w3.org/2000/svg" xmlns:xlink="http://www.w3.org/1999/xlink">
    <!-- Generator: Sketch 52.2 (67145) - http://www.bohemiancoding.com/sketch -->
    <title>icons sport / tennis racket</title>
    <desc>Created with Sketch.</desc>
    <defs>
        <path d="M27.5332432,30.418 L22.7592432,29.114 C24.2162432,28.619 25.5612432,27.823 26.6882432,26.696 C27.8352432,25.549 28.6462432,24.179 29.1382432,22.691 L30.4132432,27.537 L27.5332432,30.418 Z M10.6662432,24.05 C6.30024316,19.683 5.74724316,13.13 9.43424316,9.443 C11.0752432,7.803 13.2812432,7.001 15.6102432,7.001 C16.9032432,7.001 18.2302432,7.268 19.5222432,7.759 C17.9592432,9.378 16.9912432,11.577 16.9912432,14 C16.9912432,16.559 18.0702432,18.865 19.7902432,20.506 C19.7952432,20.511 19.7982432,20.52 19.8032432,20.525 C19.8522432,20.571 19.9062432,20.611 19.9562432,20.656 C20.0992432,20.787 20.2442432,20.916 20.3972432,21.037 C20.4762432,21.101 20.5582432,21.158 20.6392432,21.219 C20.7852432,21.327 20.9322432,21.435 21.0852432,21.535 C21.1822432,21.599 21.2822432,21.655 21.3812432,21.715 C21.5242432,21.801 21.6672432,21.887 21.8162432,21.965 C21.9302432,22.025 22.0482432,22.078 22.1652432,22.134 C22.3052432,22.2 22.4442432,22.268 22.5882432,22.327 C22.7182432,22.38 22.8502432,22.425 22.9822432,22.472 C23.1202432,22.521 23.2572432,22.572 23.3982432,22.615 C23.5432432,22.659 23.6922432,22.692 23.8402432,22.73 C23.9722432,22.762 24.1032432,22.799 24.2382432,22.826 C24.4122432,22.86 24.5892432,22.882 24.7662432,22.906 C24.8792432,22.922 24.9902432,22.943 25.1032432,22.955 C25.3972432,22.984 25.6932432,23 25.9912432,23 C26.2902432,23 26.5862432,22.984 26.8802432,22.955 L26.8812432,22.955 C26.4882432,23.807 25.9592432,24.597 25.2742432,25.282 C21.5862432,28.969 15.0332432,28.417 10.6662432,24.05 Z M31.4942432,18.312 C30.5242432,17.085 29.9912432,15.589 29.9912432,14 C29.9912432,12.411 30.5242432,10.916 31.4942432,9.688 C32.4292432,10.878 32.9912432,12.373 32.9912432,14 C32.9912432,15.627 32.4292432,17.122 31.4942432,18.312 Z M25.9912432,21 C24.1222432,21 22.4262432,20.259 21.1692432,19.061 C22.3032432,17.682 22.9912432,15.925 22.9912432,14 C22.9912432,12.075 22.3032432,10.318 21.1692432,8.939 C22.4262432,7.741 24.1222432,7 25.9912432,7 C27.8612432,7 29.5572432,7.741 30.8142432,8.939 C29.6802432,10.318 28.9912432,12.075 28.9912432,14 C28.9912432,15.925 29.6802432,17.682 30.8142432,19.061 C29.5572432,20.259 27.8612432,21 25.9912432,21 Z M18.9912432,14 C18.9912432,12.373 19.5542432,10.878 20.4892432,9.688 C21.4592432,10.916 21.9912432,12.411 21.9912432,14 C21.9912432,15.589 21.4592432,17.085 20.4892432,18.312 C19.5542432,17.122 18.9912432,15.627 18.9912432,14 Z M32.4262432,27.322 L30.9022432,21.533 C31.0542432,21.434 31.1992432,21.326 31.3442432,21.219 C31.4252432,21.158 31.5072432,21.101 31.5862432,21.037 C31.7392432,20.916 31.8842432,20.787 32.0272432,20.656 C32.0772432,20.611 32.1312432,20.571 32.1802432,20.525 C32.1852432,20.52 32.1882432,20.511 32.1932432,20.506 C33.9132432,18.865 34.9912432,16.559 34.9912432,14 C34.9912432,11.441 33.9132432,9.135 32.1932432,7.495 C32.1882432,7.489 32.1862432,7.481 32.1802432,7.475 C32.1302432,7.428 32.0762432,7.388 32.0262432,7.342 C31.8832432,7.212 31.7382432,7.084 31.5872432,6.963 C31.5072432,6.899 31.4242432,6.841 31.3422432,6.78 C31.1972432,6.672 31.0512432,6.565 30.8992432,6.465 C30.8012432,6.402 30.7002432,6.344 30.6012432,6.284 C30.4582432,6.199 30.3162432,6.113 30.1682432,6.035 C30.0532432,5.974 29.9352432,5.921 29.8182432,5.866 C29.6782432,5.8 29.5392432,5.732 29.3952432,5.673 C29.2652432,5.62 29.1322432,5.575 28.9992432,5.528 C28.8622432,5.479 28.7262432,5.427 28.5852432,5.385 C28.4402432,5.341 28.2912432,5.308 28.1432432,5.271 C28.0112432,5.238 27.8802432,5.201 27.7452432,5.174 C27.5712432,5.14 27.3942432,5.118 27.2172432,5.094 C27.1042432,5.078 26.9932432,5.056 26.8802432,5.045 C26.5862432,5.016 26.2902432,5 25.9912432,5 C25.6932432,5 25.3972432,5.016 25.1032432,5.045 C24.9902432,5.056 24.8792432,5.078 24.7662432,5.094 C24.5892432,5.118 24.4122432,5.14 24.2382432,5.174 C24.1032432,5.201 23.9722432,5.238 23.8402432,5.271 C23.6922432,5.308 23.5432432,5.341 23.3982432,5.385 C23.2572432,5.427 23.1212432,5.479 22.9842432,5.528 C22.8512432,5.575 22.7182432,5.62 22.5882432,5.673 C22.4442432,5.732 22.3052432,5.8 22.1652432,5.866 C22.0482432,5.921 21.9302432,5.974 21.8152432,6.035 C21.6672432,6.113 21.5252432,6.199 21.3822432,6.284 C21.3562432,6.3 21.3292432,6.314 21.3042432,6.33 C16.6962432,4.148 11.3992432,4.648 8.02024316,8.029 C3.55324316,12.496 4.10524316,20.317 9.25224316,25.464 C11.1002432,27.312 13.2932432,28.555 15.5512432,29.198 C15.5822432,29.211 15.6062432,29.234 15.6392432,29.243 L27.3102432,32.431 L29.5872432,34.707 C29.7832432,34.902 30.0382432,35 30.2942432,35 C30.5502432,35 30.8062432,34.902 31.0012432,34.707 C31.3922432,34.316 31.3922432,33.684 31.0012432,33.293 L29.2432432,31.535 L31.5272432,29.252 L33.2842432,31.01 C33.6752432,31.4 34.3082432,31.4 34.6992432,31.01 C35.0892432,30.619 35.0892432,29.986 34.6992432,29.596 L32.4262432,27.322 Z" id="path-1"></path>
    </defs>
    <g id="icons-sport-/-tennis-racket" stroke="none" stroke-width="1" fill="none" fill-rule="evenodd">
        <mask id="mask-2" fill="white">
            <use xlink:href="#path-1"></use>
        </mask>
        <use id="Fill-1" fill="#000000" xlink:href="#path-1"></use>
        <g id="colours-/-grey-01" mask="url(#mask-2)" fill="#716E6C">
            <rect id="Rectangle-4" x="0" y="0" width="40" height="40"></rect>
        </g>
    </g>
</svg>