<svg width="14" height="26" viewBox="0 0 14 26" fill="none" xmlns="http://www.w3.org/2000/svg">
<path fill-rule="evenodd" clip-rule="evenodd" d="M9.00003 2C9.00003 3.104 8.10403 4 7.00003 4C5.89603 4 5.00003 3.104 5.00003 2C5.00003 0.895996 5.89603 0 7.00003 0C8.10403 0 9.00003 0.895996 9.00003 2ZM4.26077 18.1807C3.15775 19.7706 1.67484 21.6757 0.239777 23.3486C-0.0992125 23.7456 -0.0762633 24.3376 0.292755 24.7067L1.29276 25.7067C1.4888 25.9027 1.74381 25.9996 1.99979 25.9996C2.25577 25.9996 2.51175 25.9027 2.70682 25.7067C3.09781 25.3167 3.09781 24.6837 2.70682 24.2927L2.35782 23.9436C3.09976 23.0566 4.14175 21.7697 5.12979 20.4197C4.75577 19.6346 4.47879 18.8846 4.26077 18.1807ZM12.2931 23.293C12.6841 22.902 13.3161 22.902 13.7071 23.293C14.0981 23.684 14.0981 24.316 13.7071 24.707L12.7071 25.707C12.5131 25.901 12.2571 26 12 26C11.7791 26 11.5591 25.928 11.375 25.781C6.35709 21.766 5.33511 17.429 5.00504 14.099L5.00003 7.36597C4.36404 7.66895 3.62112 8.19604 3.06412 9.13501L3.97012 12.757C4.10403 13.293 3.77811 13.8361 3.2421 13.97C3.16104 13.991 3.07913 14 2.99905 14C2.55106 14 2.14407 13.697 2.03006 13.243L1.03006 9.24304C0.972077 9.01099 0.999054 8.76599 1.10513 8.55298C2.50504 5.75403 5.08304 5.13599 5.84012 5.01294C5.87381 5.00745 5.90604 5.01099 5.93839 5.01453C5.95877 5.01685 5.97916 5.01904 6.00003 5.01904V5H7.00003C7.00662 5 7.01236 5.00171 7.0181 5.00354C7.02383 5.00525 7.02957 5.00696 7.03604 5.00696C7.10867 5.00977 7.17532 5.02856 7.24393 5.04785L7.26212 5.05298C7.27908 5.05737 7.29691 5.05981 7.31473 5.06213C7.34085 5.06543 7.36685 5.06885 7.39005 5.07898C7.39383 5.08081 7.39725 5.0835 7.40091 5.0863C7.40494 5.08948 7.40921 5.09277 7.41409 5.09497C7.4639 5.11841 7.50589 5.15027 7.54849 5.1825L7.58511 5.20996C7.59964 5.22083 7.61453 5.2312 7.62918 5.24133C7.66312 5.26489 7.69656 5.28809 7.72513 5.31799C7.75345 5.34839 7.77469 5.3844 7.79605 5.42065C7.80484 5.43555 7.81375 5.45044 7.82303 5.46497L7.84195 5.49365C7.87515 5.54382 7.90823 5.59387 7.93008 5.651C7.93228 5.65625 7.93533 5.66077 7.93826 5.66528C7.94205 5.67102 7.94583 5.67676 7.94803 5.68396L7.94986 5.68909C7.99478 5.81384 8.81851 8.10352 11.0191 10.566L11.2931 10.293C11.6841 9.90198 12.3161 9.90198 12.7071 10.293C13.0981 10.684 13.0981 11.316 12.7071 11.707L11.7071 12.707C11.5121 12.902 11.2561 13 11 13C10.744 13 10.4881 12.902 10.2931 12.707C9.35013 11.764 8.59708 10.823 8.00003 9.96204V12.517V18C8.00003 18.047 7.98819 18.0896 7.97623 18.1326C7.97086 18.1519 7.96548 18.1711 7.96109 18.191C8.66312 19.964 9.85306 21.818 11.9391 23.646L12.2931 23.293Z" fill="black"/>
</svg>
