<?xml version="1.0" encoding="UTF-8"?>
<svg width="40px" height="40px" viewBox="0 0 40 40" version="1.1" xmlns="http://www.w3.org/2000/svg" xmlns:xlink="http://www.w3.org/1999/xlink">
    <!-- Generator: Sketch 52.2 (67145) - http://www.bohemiancoding.com/sketch -->
    <title>icons sport / badminton racket</title>
    <desc>Created with Sketch.</desc>
    <defs>
        <path d="M17.0293,22.9713 C16.2503,22.1913 16.2493,20.9223 17.0293,20.1423 L19.8583,22.9713 C19.1023,23.7273 17.7853,23.7273 17.0293,22.9713 Z M7.0003,14.9713 C7.0003,12.8423 7.8293,10.8403 9.3343,9.3353 C10.8403,7.8293 12.8423,7.0003 14.9703,7.0003 C16.7693,7.0003 18.4733,7.5983 19.8673,8.6903 L17.5533,16.7903 L15.6153,18.7283 C14.4813,19.8633 14.1823,21.5123 14.6983,22.9283 C12.6723,22.8613 10.7753,22.0483 9.3343,20.6073 C7.8293,19.1013 7.0003,17.1003 7.0003,14.9713 Z M23.6533,7.3423 L24.6203,9.2763 C24.6293,9.2953 24.6433,9.3093 24.6543,9.3273 L20.0063,17.4623 L19.5673,17.0233 L22.1123,8.1123 L23.6533,7.3423 Z M29.5803,10.4203 L30.1613,14.4873 L21.8053,19.2623 L21.2723,18.7283 L20.7383,18.1953 L25.5133,9.8393 L29.5803,10.4203 Z M32.6583,16.3473 L31.8883,17.8883 L22.9773,20.4343 L22.5383,19.9943 L30.6733,15.3463 C30.6913,15.3573 30.7053,15.3713 30.7243,15.3803 L32.6583,16.3473 Z M21.2723,21.5573 L20.5653,22.2643 L17.7363,19.4353 L18.4443,18.7283 L19.8583,20.1423 L21.2723,21.5573 Z M34.7073,30.7563 L29.2103,25.2603 C28.8563,24.9053 28.3633,24.7093 27.8223,24.7093 L27.8213,24.7093 C27.3773,24.7093 26.9243,24.8493 26.4963,25.0833 L23.7163,22.3033 L32.8613,19.6903 C33.1303,19.6133 33.3553,19.4263 33.4803,19.1763 L34.8943,16.3473 C35.1413,15.8533 34.9413,15.2523 34.4473,15.0053 L32.0873,13.8253 L31.4543,9.3943 C31.3913,8.9543 31.0463,8.6093 30.6063,8.5463 L26.1753,7.9133 L24.9953,5.5533 C24.7483,5.0603 24.1493,4.8583 23.6533,5.1063 L20.8243,6.5203 C20.7233,6.5713 20.6413,6.6473 20.5633,6.7273 C18.9253,5.6103 16.9973,5.0003 14.9703,5.0003 C12.3073,5.0003 9.8033,6.0373 7.9203,7.9213 C6.0373,9.8043 5.0003,12.3083 5.0003,14.9713 C5.0003,17.6343 6.0373,20.1383 7.9203,22.0213 C9.8033,23.9053 12.3073,24.9423 14.9703,24.9423 C15.3833,24.9423 15.7893,24.9093 16.1913,24.8593 C16.8503,25.3113 17.6273,25.5573 18.4443,25.5573 C19.5123,25.5573 20.5163,25.1413 21.2723,24.3853 L22.1213,23.5353 L25.0773,26.4923 C24.5503,27.4583 24.5853,28.5363 25.2583,29.2103 L30.7563,34.7073 C30.9513,34.9033 31.2073,35.0003 31.4633,35.0003 C31.7183,35.0003 31.9743,34.9033 32.1703,34.7073 C32.5603,34.3173 32.5603,33.6843 32.1703,33.2933 L26.7123,27.8563 C26.6923,27.7803 26.7483,27.4443 27.0953,27.0963 C27.4423,26.7493 27.7783,26.6933 27.7953,26.6733 L33.2933,32.1703 C33.6833,32.5613 34.3163,32.5613 34.7073,32.1703 C35.0973,31.7803 35.0973,31.1473 34.7073,30.7563 Z" id="path-1"></path>
    </defs>
    <g id="icons-sport-/-badminton-racket" stroke="none" stroke-width="1" fill="none" fill-rule="evenodd">
        <mask id="mask-2" fill="white">
            <use xlink:href="#path-1"></use>
        </mask>
        <use id="Fill-1" fill="#000000" xlink:href="#path-1"></use>
        <g id="colours-/-grey-01" mask="url(#mask-2)" fill="#716E6C">
            <rect id="Rectangle-4" x="0" y="0" width="40" height="40"></rect>
        </g>
    </g>
</svg>