<svg width="26" height="18" viewBox="0 0 26 18" fill="none" xmlns="http://www.w3.org/2000/svg">
<path fill-rule="evenodd" clip-rule="evenodd" d="M19 4C17.896 4 17 3.104 17 2C17 0.895996 17.896 0 19 0C20.104 0 21 0.895996 21 2C21 3.104 20.104 4 19 4ZM0 13C0 15.757 2.24304 18 5 18C7.75696 18 10 15.757 10 13C10 10.243 7.75696 8 5 8C2.24304 8 0 10.243 0 13ZM5 10C3.34595 10 2 11.3459 2 13C2 14.6541 3.34595 16 5 16C6.65405 16 8 14.6541 8 13C8 11.3459 6.65405 10 5 10ZM16 13C16 15.757 18.243 18 21 18C23.757 18 26 15.757 26 13C26 10.243 23.757 8 21 8C18.243 8 16 10.243 16 13ZM21 10C19.3459 10 18 11.3459 18 13C18 14.6541 19.3459 16 21 16C22.6541 16 24 14.6541 24 13C24 11.3459 22.6541 10 21 10ZM11 13C11 13.552 11.448 14 12 14C12.552 14 13 13.552 13 13C13 8.61096 10.4871 6.34692 8.46899 5.43896C10.443 2.40601 12.9561 2.52502 14.078 2.76904C14.276 3.93604 14.976 6.18604 17.4449 7.83203C17.905 8.13794 18.525 8.01404 18.832 7.55493C19.1381 7.09497 19.014 6.474 18.5551 6.16797C16.066 4.50903 16.001 2.09497 16 2C16 1.59094 15.751 1.224 15.3719 1.07104L15.3707 1.07056C15.2581 1.02808 9.46313 -1.16125 6.10498 5.55298C5.96606 5.83203 5.96497 6.15894 6.10205 6.43896C6.23901 6.71899 6.49805 6.91895 6.80396 6.97998C6.97498 7.01501 11 7.87903 11 13Z" fill="black"/>
</svg>
