<svg width="25" height="19" viewBox="0 0 25 19" fill="none" xmlns="http://www.w3.org/2000/svg">
<path fill-rule="evenodd" clip-rule="evenodd" d="M20.9524 3.71704C20.9865 3.82996 21.0035 3.94604 20.9955 4.06494C20.9949 4.07568 20.9923 4.08618 20.9898 4.09668C20.9876 4.10571 20.9854 4.11475 20.9844 4.12402L20.9805 4.15381C20.9733 4.21008 20.9661 4.26672 20.9464 4.32202C20.9405 4.33862 20.9322 4.35352 20.9237 4.36829C20.918 4.37842 20.9124 4.38843 20.9075 4.39905C20.8935 4.43005 20.8794 4.45898 20.8625 4.48804C20.8155 4.57202 20.7585 4.64795 20.6895 4.71399C20.6839 4.7196 20.6787 4.72571 20.6736 4.73181C20.6659 4.74097 20.6581 4.75024 20.6485 4.75806C20.5595 4.83398 20.4574 4.89099 20.3465 4.93201C20.3412 4.93396 20.3368 4.93701 20.3324 4.94006C20.3275 4.94348 20.3227 4.9469 20.3164 4.94897C20.3017 4.9541 20.2869 4.95532 20.272 4.95654C20.2609 4.95752 20.2497 4.95837 20.2384 4.96106C20.2249 4.96472 20.2118 4.96912 20.1988 4.97351C20.1762 4.9812 20.1536 4.98889 20.1294 4.99194L20.1034 4.99536C19.8046 5.03467 16.9894 5.40442 13.0585 5.97302C14.7895 6.90601 16.4385 8.15405 16.9485 9.68396C17.0414 9.96106 17.0085 10.264 16.8575 10.514C16.1714 11.6591 14.5435 14.743 14.1094 17H16.0005C16.3915 17 17.0054 16.576 17.2964 16.29C17.6895 15.903 18.3224 15.907 18.7084 16.297C19.0974 16.688 19.0974 17.318 18.7074 17.707C18.5755 17.839 17.3755 19 16.0005 19H11.0004C10.4474 19 10.0004 18.552 10.0004 18C10.0004 17.448 10.4474 17 11.0004 17H12.0845C12.4784 14.386 14.2055 11.134 14.8785 9.94299C14.2814 8.93604 12.6885 7.95605 11.0044 7.18506C11.5605 8.09595 12.0004 9.09802 12.0004 10C12.0004 10.552 11.5535 11 11.0004 11C10.9424 11 5.37442 11.014 2.50443 11.894L2.97049 13.757C3.1044 14.2939 2.77848 14.8361 2.24246 14.97C2.16141 14.991 2.0795 15 1.99942 15C1.55142 15 1.14347 14.697 1.03043 14.243L0.0304288 10.243C-0.104581 9.70703 0.222445 9.16394 0.758456 9.03003C1.29142 8.89404 1.83646 9.22205 1.97049 9.75696L2.01944 9.95605C4.32242 9.27698 7.85147 9.078 9.73246 9.02197C9.23343 7.92603 8.13443 6.55005 7.29349 5.70703C7.22745 5.64197 7.17447 5.56799 7.1304 5.48999C7.12796 5.48547 7.12613 5.48083 7.12442 5.47607C7.12271 5.47131 7.121 5.46655 7.11844 5.46204C7.06949 5.37 7.04044 5.271 7.02249 5.16797C7.01651 5.13696 7.01346 5.10706 7.01151 5.07495C7.00247 4.96106 7.0065 4.84595 7.03751 4.73303V4.73206C7.038 4.73108 7.038 4.72998 7.038 4.72888C7.038 4.72778 7.038 4.72644 7.03849 4.72498C7.03983 4.7207 7.04227 4.71704 7.04459 4.71338C7.04715 4.70935 7.04984 4.7052 7.05142 4.69995C7.08451 4.59497 7.13748 4.50098 7.20047 4.41394L7.2106 4.40027C7.22476 4.38123 7.23819 4.36292 7.25443 4.34595C7.38651 4.19495 7.55741 4.07996 7.75846 4.03003C9.94046 3.48401 12.9514 2.94702 15.2904 2.56299C13.8155 2.23804 11.7925 2 9.0004 2C8.44742 2 8.0004 1.552 8.0004 1C8.0004 0.447998 8.44742 0 9.0004 0C19.2045 0 20.7434 3.06897 20.9485 3.68396C20.9506 3.68982 20.9507 3.6958 20.9508 3.70178C20.951 3.70691 20.9511 3.71191 20.9524 3.71704ZM23.0004 4.00012C21.8964 4.00012 21.0004 3.10413 21.0004 2.00012C21.0004 0.896118 21.8964 0.00012207 23.0004 0.00012207C24.1044 0.00012207 25.0004 0.896118 25.0004 2.00012C25.0004 3.10413 24.1044 4.00012 23.0004 4.00012Z" transform="translate(-0.000244141 -0.00012207)" fill="black"/>
</svg>
