<svg width="22" height="25" viewBox="0 0 22 25" fill="none" xmlns="http://www.w3.org/2000/svg">
<path fill-rule="evenodd" clip-rule="evenodd" d="M16.0004 2C16.0004 0.895996 16.8964 0 18.0004 0C19.1044 0 20.0004 0.895996 20.0004 2C20.0004 3.104 19.1044 4 18.0004 4C16.8964 4 16.0004 3.104 16.0004 2ZM20.2935 6.29297C20.6845 5.90198 21.3164 5.90198 21.7074 6.29297C22.0984 6.68396 22.0984 7.31604 21.7074 7.70703L18.7074 10.707C18.5194 10.896 18.2635 11 18.0004 11C17.9474 11 17.8944 10.996 17.8405 10.9871C17.5225 10.936 17.2494 10.735 17.1055 10.447L16.0314 8.29895C15.1764 10.092 14.2465 11.8979 13.3155 13.4611C14.4305 14.3051 15.8255 15.411 16.7074 16.293C16.9755 16.561 17.0685 16.957 16.9485 17.316C16.9385 17.3459 15.9485 20.33 14.9705 24.243C14.8565 24.697 14.4495 25 14.0015 25C13.9214 25 13.8395 24.991 13.7585 24.97C13.2224 24.8361 12.8954 24.293 13.0304 23.757C13.7675 20.811 14.5125 18.376 14.8555 17.291C14.1005 16.601 13.0984 15.809 12.2365 15.1541C11.0585 16.861 9.9274 18 9.0004 18C8.96244 18 5.06851 18.014 1.24246 18.97C1.16141 18.991 1.0795 19 0.999423 19C0.551425 19 0.144442 18.697 0.0304288 18.243C-0.104581 17.707 0.222445 17.1641 0.758456 17.03C4.59049 16.072 8.35941 16.005 8.93143 16.001C9.30643 15.83 9.91446 15.0699 10.6325 13.9661C10.5589 13.913 10.5011 13.8717 10.4652 13.8461L10.4235 13.816C10.0454 13.549 9.89945 13.058 10.0714 12.6281C11.3775 9.36304 12.6725 6.95398 13.4474 5.62305C11.8794 5.34497 9.1005 5.31506 6.70743 7.70703C6.31644 8.09802 5.68448 8.09802 5.29349 7.70703C4.9025 7.31604 4.9025 6.68396 5.29349 6.29297C9.70951 1.87598 15.1435 3.97998 15.3715 4.07104C16.4245 4.42102 16.8495 5.15796 16.9655 5.69397L18.2744 8.31201L20.2935 6.29297Z" transform="translate(-0.000366211)" fill="black"/>
</svg>
