<?xml version="1.0" encoding="UTF-8"?>
<svg width="40px" height="40px" viewBox="0 0 40 40" version="1.1" xmlns="http://www.w3.org/2000/svg" xmlns:xlink="http://www.w3.org/1999/xlink">
    <!-- Generator: Sketch 52.2 (67145) - http://www.bohemiancoding.com/sketch -->
    <title>icons sport / sailing</title>
    <desc>Created with Sketch.</desc>
    <defs>
        <path d="M13.0005,23.0001 C14.1045,23.0001 15.0005,22.1041 15.0005,21.0001 C15.0005,19.8961 14.1045,19.0001 13.0005,19.0001 C11.8965,19.0001 11.0005,19.8961 11.0005,21.0001 C11.0005,22.1041 11.8965,23.0001 13.0005,23.0001 M12.2812,28.0001 L12.7812,26.0001 L17.2902,26.0001 C17.3652,26.6691 17.4562,27.3371 17.5652,28.0001 L14.0002,28.0001 L12.2812,28.0001 Z M20.1542,8.2261 L32.2722,22.5091 L19.3892,26.6861 C18.4182,19.5101 19.5132,11.7821 20.1542,8.2261 Z M34.8702,28.5071 C34.6932,28.1931 34.3612,28.0001 34.0002,28.0001 L21.8202,28.0001 L34.3092,23.9511 C34.6262,23.8491 34.8712,23.5941 34.9622,23.2731 C35.0532,22.9521 34.9792,22.6071 34.7632,22.3541 L20.3402,5.3531 C20.0942,5.0641 19.7112,4.9391 19.3422,5.0281 C18.9752,5.1171 18.6892,5.4051 18.6032,5.7731 C18.5052,6.1941 16.5032,14.9331 17.1122,24.0001 L12.0002,24.0001 C11.5412,24.0001 11.1412,24.3121 11.0302,24.7581 L10.2192,28.0001 L8.0002,28.0001 C7.5922,28.0001 7.2242,28.2491 7.0722,28.6291 L5.0722,33.6291 C4.8662,34.1421 5.1162,34.7241 5.6292,34.9291 C5.7512,34.9781 5.8762,35.0001 6.0002,35.0001 C6.3972,35.0001 6.7722,34.7631 6.9292,34.3711 L8.6772,30.0001 L11.0002,30.0001 L14.0002,30.0001 L31.9192,30.0001 C30.6322,31.3131 28.3302,33.0001 25.0002,33.0001 L10.0002,33.0001 C9.4482,33.0001 9.0002,33.4471 9.0002,34.0001 C9.0002,34.5531 9.4482,35.0001 10.0002,35.0001 L25.0002,35.0001 C31.4922,35.0001 34.7232,29.7381 34.8582,29.5151 C35.0432,29.2061 35.0482,28.8211 34.8702,28.5071 Z" id="path-1"></path>
    </defs>
    <g id="icons-sport-/-sailing" stroke="none" stroke-width="1" fill="none" fill-rule="evenodd">
        <mask id="mask-2" fill="white">
            <use xlink:href="#path-1"></use>
        </mask>
        <use id="Combined-Shape" fill="#000000" xlink:href="#path-1"></use>
        <g id="colours-/-grey-01" mask="url(#mask-2)" fill="#716E6C">
            <rect id="Rectangle-4" x="0" y="0" width="40" height="40"></rect>
        </g>
    </g>
</svg>