<svg width="27" height="26" viewBox="0 0 27 26" fill="none" xmlns="http://www.w3.org/2000/svg">
<path fill-rule="evenodd" clip-rule="evenodd" d="M7.00037 2C7.00037 3.104 7.89636 4 9.00037 4C10.1044 4 11.0004 3.104 11.0004 2C11.0004 0.895996 10.1044 0 9.00037 0C7.89636 0 7.00037 0.895996 7.00037 2ZM16.0013 6C15.6543 6 15.3163 5.81897 15.1323 5.49597C14.8583 5.01697 15.0243 4.40601 15.5043 4.13196L22.5043 0.131958C22.9843 -0.140991 23.5953 0.0239258 23.8683 0.504028C24.1423 0.983032 23.9763 1.59399 23.4963 1.86792L16.4963 5.86792C16.3403 5.95801 16.1693 6 16.0013 6ZM25.5212 11.1219C26.0072 10.859 26.6143 11.037 26.8783 11.521C27.1433 12.006 26.9642 12.613 26.4792 12.8781L4.47925 24.8781C4.29224 24.972 3.29529 25.446 2.21423 25.446C1.54919 25.446 0.852295 25.267 0.293213 24.707C-0.0977783 24.316 -0.0977783 23.684 0.293213 23.293C0.684204 22.902 1.31628 22.902 1.70728 23.293C2.0332 23.619 3.06628 23.349 3.55322 23.105L13.9003 17.4611C11.2872 15.6801 10.3342 14.748 10.2932 14.707C9.90222 14.316 9.90222 13.684 10.2932 13.293C11.7683 11.818 13.0133 10.8101 13.9232 10.15C13.6343 9.71106 12.9663 8.83801 11.7913 7.849C11.6162 8.97803 11.2972 10.1169 10.7073 10.707C10.4583 10.9561 10.0992 11.054 9.7572 10.97L5.7572 9.96997C5.22229 9.83606 4.89624 9.29297 5.03027 8.75696C5.16431 8.22205 5.71021 7.896 6.24329 8.03003L9.52319 8.84998C9.79419 8.06995 9.99927 6.50598 10.0002 5C10.0012 4.448 10.4482 4 11.0002 4H12.0002C12.2653 4 12.5203 4.10498 12.7073 4.29297C12.8352 4.42004 15.8342 7.43201 16.8953 9.55298C17.1422 10.047 16.9413 10.647 16.4473 10.895C16.4332 10.902 14.8712 11.709 12.4833 13.955C13.0823 14.4351 14.0653 15.175 15.5553 16.168C15.6582 16.2371 15.7383 16.326 15.8073 16.421L25.5212 11.1219Z" transform="translate(-0.000366211)" fill="black"/>
</svg>
