<?xml version="1.0" encoding="UTF-8"?>
<svg width="40px" height="40px" viewBox="0 0 40 40" version="1.1" xmlns="http://www.w3.org/2000/svg" xmlns:xlink="http://www.w3.org/1999/xlink">
    <!-- Generator: Sketch 52.2 (67145) - http://www.bohemiancoding.com/sketch -->
    <title>icons sport / squash racket</title>
    <desc>Created with Sketch.</desc>
    <defs>
        <path d="M22.8984257,7.213248 C24.1764388,5.85170418 25.991493,5 28.0013,5 C31.8603,5 35.0013,8.14 35.0013,12 C35.0013,15.1092809 32.9632574,17.7513887 30.1535737,18.6614901 L32.4353,27.3227 L34.7083,29.5957 C35.0993,29.9867 35.0993,30.6187 34.7083,31.0097 C34.3173,31.4007 33.6853,31.4007 33.2943,31.0097 L30.8293,28.5447 C30.7043,28.4197 30.6143,28.2637 30.5693,28.0927 L28.1760134,18.9978506 C28.1179456,18.9992807 28.059705,19 28.0013,19 C24.1423,19 21.0013,15.86 21.0013,12 C21.0013,10.8677172 21.2715733,9.79738823 21.7509614,8.85009568 C17.6131338,6.25002065 12.5273665,6.35886921 9.4432,9.4421 C7.6782,11.2081 6.8212,13.6841 7.0312,16.4141 C7.2462,19.2031 8.5402,21.9141 10.6762,24.0501 C13.5102,26.8841 16.2992,27.4681 16.3272,27.4741 L28.0942,30.5681 C28.2652,30.6131 28.4212,30.7031 28.5462,30.8281 L31.0112,33.2931 C31.4012,33.6831 31.4012,34.3161 31.0112,34.7071 C30.8162,34.9021 30.5602,35.0001 30.3042,35.0001 C30.0482,35.0001 29.7922,34.9021 29.5972,34.7071 L27.3232,32.4331 L15.8762,29.4211 C15.7972,29.4071 12.5202,28.7221 9.2622,25.4641 C6.7892,22.9911 5.2882,19.8311 5.0372,16.5681 C4.7812,13.2461 5.8452,10.2131 8.0292,8.0281 C11.8047288,4.25257125 17.9703293,4.07288409 22.8984257,7.213248 Z M22.2796,26.8516 L27.8776,28.3256 L28.3266,27.8756 L26.8556,22.2906 C26.5356,23.1806 26.0006,24.2216 25.1116,25.1106 C24.2276,25.9946 23.1766,26.5296 22.2796,26.8516 Z M28.0276,29.3816 C27.9856,29.3816 27.9426,29.3756 27.9006,29.3656 L20.0956,27.3106 C19.8606,27.2486 19.7046,27.0266 19.7246,26.7846 C19.7466,26.5416 19.9386,26.3496 20.1806,26.3296 C20.2066,26.3276 22.7146,26.0936 24.4046,24.4036 C26.1216,22.6866 26.3276,20.2096 26.3296,20.1846 C26.3476,19.9416 26.5406,19.7466 26.7836,19.7246 C27.0246,19.7026 27.2506,19.8586 27.3116,20.0946 L29.3666,27.8996 C29.4116,28.0716 29.3626,28.2536 29.2366,28.3796 L28.3816,29.2356 C28.2866,29.3306 28.1586,29.3816 28.0276,29.3816 Z M28.0013,11 C27.4483,11 27.0013,10.552 27.0013,10 C27.0013,9.448 27.4483,9 28.0013,9 C28.5543,9 29.0013,9.448 29.0013,10 C29.0013,10.552 28.5543,11 28.0013,11 Z M28.0013,15 C27.4483,15 27.0013,14.552 27.0013,14 C27.0013,13.448 27.4483,13 28.0013,13 C28.5543,13 29.0013,13.448 29.0013,14 C29.0013,14.552 28.5543,15 28.0013,15 Z M28.0013,7 C25.2443,7 23.0013,9.243 23.0013,12 C23.0013,14.757 25.2443,17 28.0013,17 C30.7583,17 33.0013,14.757 33.0013,12 C33.0013,9.243 30.7583,7 28.0013,7 Z" id="path-1"></path>
    </defs>
    <g id="icons-sport-/-squash-racket" stroke="none" stroke-width="1" fill="none" fill-rule="evenodd">
        <mask id="mask-2" fill="white">
            <use xlink:href="#path-1"></use>
        </mask>
        <use id="Combined-Shape" fill="#000000" xlink:href="#path-1"></use>
        <g id="colours-/-grey-01" mask="url(#mask-2)" fill="#716E6C">
            <rect id="Rectangle-4" x="0" y="0" width="40" height="40"></rect>
        </g>
    </g>
</svg>